<svg id="レイヤー_1" data-name="レイヤー 1" xmlns="http://www.w3.org/2000/svg" viewBox="0 0 702.55 292.94"><defs><style>.cls-1{fill:none;stroke-width:8px;}.cls-1,.cls-4{stroke:#231815;stroke-linecap:round;stroke-linejoin:round;}.cls-2,.cls-4{fill:#ffe33f;}.cls-3{fill:#c62a34;}.cls-4{stroke-width:5px;}</style></defs><title>kocone</title><path class="cls-1" d="M114.46,140.71c14.3-45.22,27.13-97.15,11.67-108.82s-56-13.12-65,0-52.45,191.39,2,222.88c31.8,18.38,58.32-5.25,65.35-39.38-.62,26,4.08,53.44,25.08,54.87s57.18-12.86,8.17-100.38c22.47,3.79,44.35,5.54,53.39-6.71s19-36.46-2.63-53.09S136.93,120,114.46,140.71Z"/><path class="cls-2" d="M114.46,140.71c14.3-45.22,27.13-97.15,11.67-108.82s-56-13.12-65,0-52.45,191.39,2,222.88c31.8,18.38,58.32-5.25,65.35-39.38-.62,26,4.08,53.44,25.08,54.87s57.18-12.86,8.17-100.38c22.47,3.79,44.35,5.54,53.39-6.71s19-36.46-2.63-53.09S136.93,120,114.46,140.71Z"/><path class="cls-1" d="M293.29,214.22c0,23.12-23.12,46.68-46.24,46.68s-39.23-18.6-39.23-41.72,24.43-44.63,47.55-44.63S293.29,191.1,293.29,214.22ZM254.75,197.6c-11.76,0-24.18,12.64-24.18,26.23s8.2,24.53,20,24.53S274,234.51,274,220.92,266.51,197.6,254.75,197.6Z"/><path class="cls-2" d="M293.29,214.22c0,23.12-23.12,46.68-46.24,46.68s-39.23-18.6-39.23-41.72,24.43-44.63,47.55-44.63S293.29,191.1,293.29,214.22ZM254.75,197.6c-11.76,0-24.18,12.64-24.18,26.23s8.2,24.53,20,24.53S274,234.51,274,220.92,266.51,197.6,254.75,197.6Z"/><path class="cls-1" d="M362.14,207.81h26c2.63-24.22-19.54-37.93-37.63-37.93s-39.67,17.21-39.67,51.05,26.17,33.26,38.76,33.26,32.71-9,32.71-31.21H363.6c0,13.71-32.38,24.79-32.38-4.09S362.14,183.3,362.14,207.81Z"/><path class="cls-2" d="M362.14,207.81h26c2.63-24.22-19.54-37.93-37.63-37.93s-39.67,17.21-39.67,51.05,26.17,33.26,38.76,33.26,32.71-9,32.71-31.21H363.6c0,13.71-32.38,24.79-32.38-4.09S362.14,183.3,362.14,207.81Z"/><path class="cls-1" d="M479.53,191.76a30.21,30.21,0,1,1-30.2-30.21A30.21,30.21,0,0,1,479.53,191.76Zm-30.2,67.39c14-15.75,42.71-30,42.71-67.39a42.72,42.72,0,1,0-85.43,0C406.61,229.1,435.32,243.4,449.33,259.15Z"/><path class="cls-3" d="M479.53,191.76a30.21,30.21,0,1,1-30.2-30.21A30.21,30.21,0,0,1,479.53,191.76Zm-30.2,67.39c14-15.75,42.71-30,42.71-67.39a42.72,42.72,0,1,0-85.43,0C406.61,229.1,435.32,243.4,449.33,259.15Z"/><path class="cls-1" d="M536,181.26v-6.71c0-4.67-25.67-6.13-25.67,0v68.26c0,9.78,21.88,15.17,26.84,5.55s-6.07-50.76,11.55-50.76,13.53,25.67,13.53,44.05c0,9,17.22,11.08,17.22-2.05s7.14-66.8-24.51-66.8C545.24,172.8,539.51,175.78,536,181.26Z"/><path class="cls-2" d="M536,181.26v-6.71c0-4.67-25.67-6.13-25.67,0v68.26c0,9.78,21.88,15.17,26.84,5.55s-6.07-50.76,11.55-50.76,13.53,25.67,13.53,44.05c0,9,17.22,11.08,17.22-2.05s7.14-66.8-24.51-66.8C545.24,172.8,539.51,175.78,536,181.26Z"/><path class="cls-1" d="M641.47,240.11c8,3.06,2.95,12.61-5.5,12.43-26.15-.56-40.45-18.5-40.45-39,0-23.73,15.94-39,42.05-39,38.51,0,29.6,51.45,22.92,51.45s-45.84-1-45.84-1C618.06,233.33,631.3,236.21,641.47,240.11Zm-27.78-28h40.43C654.12,174.55,613.69,187,613.69,212.11Z"/><path class="cls-2" d="M641.47,240.11c8,3.06,2.95,12.61-5.5,12.43-26.15-.56-40.45-18.5-40.45-39,0-23.73,15.94-39,42.05-39,38.51,0,29.6,51.45,22.92,51.45s-45.84-1-45.84-1C618.06,233.33,631.3,236.21,641.47,240.11Zm-27.78-28h40.43C654.12,174.55,613.69,187,613.69,212.11Z"/><line class="cls-4" x1="449.33" y1="134.44" x2="449.33" y2="120.87"/><line class="cls-4" x1="478.74" y1="141.09" x2="488.82" y2="131.01"/><line class="cls-4" x1="419.91" y1="141.09" x2="409.83" y2="131.01"/></svg>